<svg width="1250" height="1810" viewBox="0 0 1250 1810" fill="none" xmlns="http://www.w3.org/2000/svg">
<ellipse cx="890" cy="1769.23" rx="170" ry="40" fill="#476556"/>
<path opacity="0.2" d="M-245.5 36.7252C-172.182 22.0228 -96.7262 14.5808 -21.6927 10.4583C100.05 4.40419 222.804 7.4189 341.923 30.5185C456.571 53.8002 591.11 100.79 624.306 217.214C639.29 270.916 664.312 326.039 714.481 359.227C764.716 392.497 826.562 392.745 881.077 387.211C987.724 377.513 1108.94 333.164 1181.57 404.086C1260.39 468.523 1166.64 542.731 1088.87 578.26C1007.16 618.201 918.613 645.115 829.625 674.068L831.278 673.56C644.62 722.182 459.297 779.65 278.964 852.415C188.959 889.23 100.021 929.659 15.1397 981.648C-64.2781 1036.02 -168.11 1090.85 -181.321 1223.73C-164.591 1426.96 9.30902 1521.27 146.281 1602.65C292.331 1681.27 448.449 1736.19 609.34 1772.59C684.614 1789.36 761.575 1801.74 839.283 1807.62C841.428 1774.36 843.572 1741.09 845.717 1707.83C773.661 1703.99 700.763 1693.98 629.034 1679.65C342.159 1613.25 -42.8471 1496.38 -107.679 1223.73C-82.1119 1076.93 140.034 983.708 302.509 908.536C477.469 833.361 660.307 772.13 843.722 719.999L845.375 719.492C932.216 689.039 1022.81 659.506 1107.81 615.621C1149.98 593.017 1192.8 568.787 1225.83 526.975C1241.81 506.425 1253.92 476.435 1247.94 446.992C1242.19 417.562 1224.64 396.029 1206.43 378.474C1104.32 290.533 979.737 350.183 877.893 358.933C825.464 365.514 770.679 365.495 727.929 338.347C684.944 311.538 660.053 262.525 644.694 211.345C602.645 80.9557 460.353 39.2986 344.33 17.6331C223.09 -3.08275 99.9111 -3.28269 -22.0108 5.46845C-97.1192 11.2647 -172.513 20.388 -245.5 36.7252Z" fill="#82998E"/>
<path d="M785.07 1796.2C786.123 1796.33 787.178 1796.03 788.005 1795.37C788.831 1794.7 789.361 1793.72 789.477 1792.66C789.592 1791.59 789.284 1790.52 788.619 1789.69C787.954 1788.86 786.986 1788.35 785.93 1788.25C785.93 1788.25 785.93 1788.25 785.93 1788.25C781.456 1787.81 776.492 1787.23 771.614 1786.62C686.485 1773.83 595.473 1760.05 526.955 1704.28C523.447 1701.01 520.018 1697.41 517 1693.73C519.914 1697.5 523.251 1701.19 526.678 1704.57C594.014 1762.51 685.178 1778.92 770.567 1794.15C775.49 1794.9 780.425 1795.61 785.07 1796.2Z" fill="url(#paint0_linear_3107_871)"/>
<path d="M713.441 1753.29C714.115 1753.71 714.927 1753.85 715.7 1753.66C716.473 1753.47 717.144 1752.97 717.563 1752.28C717.982 1751.59 718.114 1750.77 717.925 1750C717.737 1749.22 717.244 1748.57 716.559 1748.16C716.559 1748.16 716.559 1748.16 716.559 1748.16C713.202 1746.18 709.98 1744.4 706.536 1742.61C645.588 1710 569.768 1720.3 518.873 1670.82C515.964 1668.31 513.307 1665.9 510.5 1663.23C513.237 1665.97 515.827 1668.46 518.675 1671.04C568.215 1721.96 646.064 1714.35 703.845 1747.63C707.148 1749.46 710.23 1751.28 713.441 1753.29Z" fill="url(#paint1_linear_3107_871)"/>
<path d="M791.451 1604.91C792.422 1605.34 793.518 1605.36 794.5 1604.96C795.482 1604.56 796.27 1603.77 796.688 1602.77C797.105 1601.78 797.117 1600.67 796.716 1599.68C796.315 1598.7 795.534 1597.93 794.549 1597.54C794.549 1597.54 794.549 1597.54 794.549 1597.54C790.584 1595.94 786.575 1594.5 782.522 1593.19C708.105 1569.98 631.847 1589.62 557.956 1598.04C553.836 1598.39 549.581 1598.66 545.5 1598.73C549.581 1598.79 553.848 1598.66 557.984 1598.44C632.188 1592.25 709.305 1575.59 780.075 1600.39C783.924 1601.77 787.716 1603.27 791.451 1604.91Z" fill="url(#paint2_linear_3107_871)"/>
<path d="M722.406 1621.15C723.048 1621.32 723.726 1621.22 724.293 1620.88C724.86 1620.53 725.269 1619.97 725.428 1619.32C725.588 1618.67 725.485 1617.98 725.141 1617.41C724.797 1616.85 724.24 1616.45 723.594 1616.3C723.594 1616.3 723.594 1616.3 723.594 1616.3C720.047 1615.47 716.718 1614.75 713.193 1614.05C649.395 1600.3 587.75 1625.58 524.529 1625.68C521.111 1625.87 517.602 1626.05 514 1626.23C517.605 1626.14 521.117 1626.04 524.54 1625.93C587.651 1627.28 650.68 1603.67 712.218 1618.7C715.667 1619.47 718.927 1620.26 722.406 1621.15Z" fill="url(#paint3_linear_3107_871)"/>
<path d="M701.409 1688.03C701.623 1688.19 701.889 1688.26 702.151 1688.22C702.414 1688.17 702.649 1688.03 702.807 1687.82C702.964 1687.6 703.03 1687.33 702.99 1687.07C702.949 1686.81 702.805 1686.57 702.591 1686.42C702.591 1686.42 702.591 1686.42 702.591 1686.42C699.619 1684.28 696.212 1682.77 692.827 1681.53C630.6 1664.62 563.154 1670.79 505.452 1640.05C502.377 1638.28 499.339 1636.32 496.5 1634.23C499.319 1636.34 502.341 1638.33 505.401 1640.14C562.795 1671.43 630.922 1666.03 692.168 1683.31C695.445 1684.54 698.705 1686.04 701.409 1688.03Z" fill="url(#paint4_linear_3107_871)"/>
<ellipse cx="774" cy="1695.23" rx="100" ry="100" transform="rotate(90 774 1695.23)" fill="#FFFBF2"/>
<defs>
<linearGradient id="paint0_linear_3107_871" x1="542" y1="1738.23" x2="752" y2="1792.23" gradientUnits="userSpaceOnUse">
<stop offset="0.5" stop-color="#82998E"/>
<stop offset="1" stop-color="#82998E" stop-opacity="0"/>
</linearGradient>
<linearGradient id="paint1_linear_3107_871" x1="451.5" y1="1650.23" x2="698" y2="1733.73" gradientUnits="userSpaceOnUse">
<stop offset="0.5" stop-color="#82998E"/>
<stop offset="1" stop-color="#82998E" stop-opacity="0"/>
</linearGradient>
<linearGradient id="paint2_linear_3107_871" x1="524" y1="1522.23" x2="796.5" y2="1604.73" gradientUnits="userSpaceOnUse">
<stop offset="0.5" stop-color="#82998E"/>
<stop offset="1" stop-color="#82998E" stop-opacity="0"/>
</linearGradient>
<linearGradient id="paint3_linear_3107_871" x1="516.5" y1="1587.23" x2="718" y2="1619.23" gradientUnits="userSpaceOnUse">
<stop offset="0.5" stop-color="#82998E"/>
<stop offset="1" stop-color="#82998E" stop-opacity="0"/>
</linearGradient>
<linearGradient id="paint4_linear_3107_871" x1="526.5" y1="1622.73" x2="702.5" y2="1690.73" gradientUnits="userSpaceOnUse">
<stop offset="0.5" stop-color="#82998E"/>
<stop offset="1" stop-color="#82998E" stop-opacity="0"/>
</linearGradient>
</defs>
</svg>
