<svg xmlns="http://www.w3.org/2000/svg" viewBox="0 0 1600 2200" fill="none" aria-hidden="true">
  <!-- Continuous fairway / ball trail for hero + about scroll -->
  <path
    d="M-80 420 C 180 380, 320 520, 520 480 C 720 440, 820 280, 980 320 C 1140 360, 1220 520, 1380 500 C 1520 480, 1580 620, 1620 780"
    stroke="#d9d5ce"
    stroke-width="4"
    stroke-linecap="round"
    stroke-linejoin="round"
    opacity="0.95"
  />
  <path
    d="M-60 460 C 200 420, 340 560, 540 520 C 740 480, 840 320, 1000 360 C 1160 400, 1240 560, 1400 540 C 1540 520, 1600 660, 1640 820"
    stroke="#ccc9c2"
    stroke-width="2.2"
    stroke-linecap="round"
    stroke-linejoin="round"
    opacity="0.85"
  />
  <path
    d="M-100 1180 C 200 1040, 420 1280, 680 1120 C 920 980, 1020 1320, 1280 1180 C 1420 1080, 1500 1420, 1580 1580 C 1620 1680, 1560 1880, 1320 1980"
    stroke="#d9d5ce"
    stroke-width="3.5"
    stroke-linecap="round"
    stroke-linejoin="round"
    opacity="0.9"
  />
  <path
    d="M-80 1220 C 220 1080, 440 1320, 700 1160 C 940 1020, 1060 1360, 1300 1220 C 1440 1120, 1520 1460, 1600 1620 C 1640 1720, 1580 1920, 1340 2020"
    stroke="#c4bba8"
    stroke-width="1.8"
    stroke-linecap="round"
    stroke-linejoin="round"
    opacity="0.75"
  />
</svg>
